<svg width="170" height="93" viewBox="0 0 170 93" fill="none" xmlns="http://www.w3.org/2000/svg">
<path d="M98.0905 0.173023C97.841 0.356606 97.0304 1.01707 95.9482 1.92232C95.0295 2.69041 94.5547 3.10189 94.495 3.18629C94.4222 3.28969 94.3581 3.50703 94.336 3.73492C94.325 3.84465 94.3139 4.51989 94.3139 5.23523C94.3139 6.61948 94.3051 6.7503 94.2035 7.01407C94.124 7.21664 94.0577 7.28627 93.7728 7.46564C93.0595 7.9151 92.6885 8.45107 92.5582 9.21072C92.5162 9.45971 92.5162 9.95559 92.5604 10.27C92.578 10.4072 92.5913 10.6287 92.5891 10.7617C92.5869 10.8946 92.5913 11.1141 92.6001 11.247C92.62 11.5255 92.5891 11.7133 92.4919 11.9075C92.3616 12.1712 92.1606 12.3421 91.7587 12.53C91.3148 12.7367 91.1027 12.9456 90.9813 13.3023C90.8841 13.5766 90.8863 13.5302 90.8907 16.9127C90.8929 19.16 90.8863 20.2657 90.8686 20.4999C90.8554 20.6856 90.8421 20.8396 90.8377 20.8418C90.8355 20.8439 90.6102 20.8481 90.3386 20.8523C89.7423 20.8586 89.7357 20.8565 89.6341 20.654C89.5457 20.4725 89.506 20.3184 89.422 19.8078C89.3823 19.5651 89.3447 19.3647 89.3403 19.3626C89.3381 19.3583 80.5349 20.1264 69.7794 21.0697C51.8395 22.6396 50.2229 22.7852 50.1964 22.8211C50.1323 22.9034 50.0705 23.1059 49.9888 23.5069C49.6862 24.9586 49.4786 26.4842 49.3704 28.0225C49.2799 29.3224 49.2799 31.0421 49.3704 32.3483C49.5405 34.7918 49.98 37.2058 50.6933 39.5966C50.9716 40.5293 51.3713 41.6983 51.5038 41.9642C51.6408 42.2406 51.8506 42.3925 52.1664 42.4453C52.2901 42.4664 59.1917 42.4685 85.2943 42.4622C115.299 42.4537 118.274 42.4495 118.376 42.42C118.612 42.3482 118.634 42.3208 118.78 41.9431C118.853 41.7553 119.01 41.3354 119.127 41.0104C119.244 40.6854 119.367 40.3415 119.403 40.2465L119.467 40.0735L119.396 40.0629C119.321 40.0503 118.325 40.0229 116.753 39.987C114.306 39.9321 113.062 39.8266 111.708 39.565C111.527 39.5312 111.375 39.4974 111.368 39.4932C111.364 39.4869 111.485 39.4236 111.638 39.3497L111.916 39.2168L111.704 39.0416C111.578 38.9382 111.505 38.8644 111.523 38.8581C111.596 38.8327 112.172 38.742 112.4 38.7188C112.733 38.685 113.177 38.704 113.407 38.761C113.504 38.7863 113.738 38.877 113.926 38.9636C114.31 39.1387 114.407 39.1682 114.601 39.1682C114.82 39.1661 115.028 39.0817 115.273 38.8897C115.494 38.7167 115.686 38.647 116.229 38.5415C116.788 38.4318 116.775 38.436 116.775 38.3622C116.775 38.3094 116.753 38.2862 116.64 38.2124C116.474 38.1047 116.351 37.9866 116.298 37.8811C116.211 37.7165 116.238 37.2818 116.357 36.8766L116.382 36.7943L117.676 36.8049C118.59 36.8133 118.99 36.8239 119.036 36.8408C119.072 36.8534 119.182 36.9188 119.284 36.9843L119.467 37.1024L119.308 37.2206C119.078 37.3936 118.928 37.497 118.751 37.6004C118.667 37.6511 118.592 37.6954 118.588 37.6996C118.57 37.7144 118.818 37.9887 118.983 38.1364C119.301 38.4234 119.555 38.5521 119.721 38.5078C119.818 38.4825 119.917 38.3727 119.964 38.2419C120.043 38.0119 120.516 35.8638 120.489 35.8553C120.481 35.8532 120.392 35.8068 120.295 35.7541C120.079 35.6359 119.951 35.5177 119.886 35.3785C119.845 35.2856 119.84 35.2455 119.849 35.0598C119.86 34.8699 119.955 34.4331 119.997 34.393C120.004 34.3846 120.09 34.3909 120.187 34.4078C120.386 34.4394 120.697 34.4458 120.715 34.4205C120.721 34.4099 120.746 34.1799 120.77 33.9077C120.796 33.6355 120.823 33.3717 120.83 33.319L120.841 33.2219L120.598 33.0868C120.222 32.8779 120.017 32.745 119.968 32.6817C119.937 32.6395 119.924 32.5804 119.917 32.4601C119.909 32.3209 119.915 32.285 119.955 32.2259C120.019 32.1267 120.103 32.1014 120.452 32.0782C120.801 32.0571 120.891 32.0276 120.913 31.9326C120.92 31.901 120.933 31.768 120.94 31.6414C120.96 31.3333 120.924 31.2152 120.772 31.0548C120.712 30.9936 120.604 30.9113 120.534 30.8754C120.461 30.8374 120.366 30.7699 120.324 30.7256C120.251 30.6496 119.913 30.0377 119.935 30.0208C119.939 30.0166 120.118 29.9617 120.33 29.9027C120.542 29.8415 120.759 29.7718 120.812 29.7486L120.905 29.7064V29.1282V28.5501L120.757 28.5606C120.673 28.5648 120.476 28.5754 120.317 28.5817C120.158 28.588 119.886 28.607 119.71 28.626C119.52 28.645 119.27 28.6556 119.094 28.6514C118.727 28.6429 118.659 28.6134 118.566 28.4256L118.508 28.3074V27.6322C118.506 26.9843 118.504 26.9527 118.458 26.8366C118.4 26.7037 118.265 26.5687 118.128 26.5138C117.718 26.3471 116.183 26.2964 114.919 26.4083C113.888 26.5011 112.819 26.6657 108.948 27.3346L108.287 27.4486L108.168 27.3557C107.815 27.0793 107.413 27.1911 107.137 27.6427C106.898 28.031 106.66 28.1871 105.94 28.4235C105.56 28.5501 105.33 28.6471 105.16 28.7505C105.083 28.797 105.058 28.7991 104.009 28.8349C101.964 28.9025 102.108 28.9003 101.991 28.8455C101.878 28.7948 101.812 28.6999 101.788 28.5564C101.781 28.5121 101.79 28.0289 101.81 27.4845C101.931 24.0703 102.053 19.62 102.143 15.1824C102.207 12.0024 102.207 12.0109 102.167 11.8505C102.106 11.5973 102.024 11.4664 101.785 11.2364C101.28 10.7448 101.2 10.2911 101.447 9.32255C101.679 8.4152 101.525 7.68087 100.891 6.68067C100.586 6.20378 100.48 5.96955 100.429 5.6657C100.414 5.57074 100.403 4.98412 100.398 4.00924C100.394 3.01326 100.383 2.46463 100.365 2.3971C100.33 2.24728 100.295 2.19031 100.036 1.88856C99.7027 1.49607 98.3555 -7.62939e-06 98.3379 -7.62939e-06C98.329 0.0021019 98.2186 0.0780678 98.0905 0.173023ZM98.5852 1.84847C98.7509 2.02994 98.8856 2.18609 98.8856 2.19242C98.8856 2.19875 98.53 2.27049 98.0971 2.34646L97.3065 2.48995L97.2623 2.43719C97.238 2.40765 97.2005 2.35701 97.1806 2.32536L97.1431 2.26416L97.7107 1.89278C98.0221 1.6881 98.2804 1.5214 98.2827 1.51929C98.2849 1.51929 98.4218 1.667 98.5852 1.84847ZM98.8503 3.65474C98.8569 3.71593 98.8745 3.86997 98.8878 3.99869C98.9253 4.32365 98.9253 4.67604 98.8878 4.77944C98.8083 5.00311 98.5963 5.12339 98.1678 5.1888C97.6908 5.26055 97.3352 5.30064 97.3175 5.28165C97.3065 5.27321 97.2734 5.09385 97.2424 4.88284C97.1828 4.48191 97.1696 4.11897 97.2093 3.98181C97.2402 3.87209 97.3617 3.74969 97.492 3.69483C97.6731 3.62098 98.1413 3.56612 98.7354 3.54712L98.8392 3.54501L98.8503 3.65474ZM98.7487 6.687C98.8569 6.73975 98.9187 6.82627 98.9474 6.96132C98.9607 7.01618 98.9629 7.3327 98.9541 7.69142L98.9408 8.32446L98.0132 8.57978L97.0856 8.83511L97.068 8.75915C97.0569 8.71695 97.0525 8.32657 97.0591 7.89188C97.0702 7.00141 97.068 7.01407 97.2447 6.85581C97.3992 6.71443 97.5362 6.67645 98.0243 6.64691C98.4461 6.62159 98.636 6.63002 98.7487 6.687ZM94.3294 13.0469C94.6033 13.2432 94.6607 13.4647 94.5215 13.7834C94.4774 13.8825 94.3161 14.159 94.23 14.2814C94.2146 14.3025 94.1792 14.2919 94.0732 14.2328C93.6448 13.9923 93.6227 13.8614 93.8987 13.1419L94.0114 12.8507L94.113 12.9077C94.1682 12.9372 94.2653 13.0005 94.3294 13.0469ZM94.3095 17.9804C94.4487 18.088 94.5414 18.1978 94.6165 18.3413C94.7225 18.5438 94.685 18.8034 94.5149 19.0397C94.4487 19.1347 94.4398 19.1389 94.3404 19.1389C94.2587 19.1389 93.6867 19.0059 93.6558 18.9806C93.6448 18.9722 94.1682 17.8939 94.1836 17.8939C94.1925 17.8939 94.2477 17.934 94.3095 17.9804ZM100.564 20.1876C100.564 20.1982 100.591 20.4598 100.621 20.77C100.652 21.0823 100.674 21.3397 100.67 21.344C100.659 21.3545 100.29 21.3967 100.281 21.3883C100.279 21.3841 100.189 20.2467 100.189 20.2003C100.189 20.1961 100.317 20.1855 100.493 20.1771C100.531 20.175 100.564 20.1792 100.564 20.1876ZM92.8099 22.6417L92.8894 22.7789L92.9049 23.8023C92.9137 24.3657 92.9115 24.9038 92.9027 24.9966C92.8828 25.1886 92.8342 25.2751 92.6531 25.4418L92.5559 25.5326L92.3771 25.368L92.1982 25.2055L92.1849 24.9312C92.1628 24.4163 92.0347 24.1631 91.6703 23.9036C91.6063 23.8592 91.5334 23.7854 91.5091 23.739C91.3987 23.5301 91.3523 23.0827 91.434 22.9983C91.4981 22.9308 91.752 22.7936 91.9442 22.7219C92.2026 22.6248 92.6399 22.494 92.6885 22.5003C92.715 22.5024 92.7591 22.5552 92.8099 22.6417ZM90.6213 23.0975C90.7317 23.1418 90.7803 23.1861 90.8311 23.2958C90.8753 23.3866 90.8775 23.4246 90.8708 24.2011C90.8686 24.6463 90.8576 25.0641 90.8465 25.1295C90.8134 25.3173 90.7008 25.5094 90.5727 25.5896C90.4313 25.6803 90.3209 25.7077 90.0956 25.7077C89.8571 25.7077 89.7401 25.6761 89.6319 25.5832C89.4993 25.4672 89.4861 25.4123 89.4971 24.9523C89.5126 24.3593 89.5104 24.1378 89.4905 23.8339C89.4684 23.5216 89.4861 23.4351 89.5855 23.3001C89.6716 23.1882 89.877 23.0912 90.0846 23.0658C90.279 23.0405 90.5153 23.0553 90.6213 23.0975ZM94.632 24.0703L94.6452 24.161H94.5193C94.4487 24.161 94.325 24.1673 94.2433 24.1758L94.0931 24.1884V23.6904V23.1924L94.2874 23.1861L94.4796 23.1798L94.548 23.5807C94.5856 23.8002 94.6231 24.0217 94.632 24.0703ZM80.2611 23.5174C80.3207 23.5343 80.4046 23.5702 80.4466 23.5976C80.5151 23.6419 80.5217 23.6546 80.5283 23.7685C80.5327 23.8529 80.5128 23.9732 80.4665 24.1589C80.4046 24.391 80.387 24.4353 80.3185 24.5028L80.239 24.5809L80.2434 24.7793C80.25 25.0177 80.2125 25.1232 80.0888 25.2245C80.0402 25.2625 79.9497 25.311 79.8856 25.33C79.773 25.3617 79.3799 25.406 79.1921 25.406H79.0972V24.4775C79.0972 23.9669 79.0994 23.5491 79.1038 23.5469C79.106 23.5469 79.212 23.5322 79.3401 23.5174C79.678 23.4794 80.1241 23.4794 80.2611 23.5174ZM77.1338 23.6989C77.3127 23.7938 77.3966 24.0238 77.3966 24.4248C77.3966 24.6505 77.3326 25.3195 77.3083 25.3638C77.295 25.3849 77.0653 25.4397 76.5971 25.5326L75.9059 25.6718L75.8992 24.7645C75.8948 24.0766 75.9014 23.855 75.9213 23.8424C75.9655 23.8149 76.4204 23.6947 76.5861 23.663C76.8114 23.6229 77.0145 23.6356 77.1338 23.6989ZM74.234 23.9542C74.3731 24.0238 74.4438 24.1589 74.5012 24.4649L74.5432 24.6927L74.4129 24.9903C74.2141 25.4418 74.1192 25.5727 73.9292 25.6571C73.821 25.7056 73.779 25.7119 73.5604 25.7119C73.2623 25.7119 73.2247 25.6929 73.1187 25.4904C73.0039 25.2667 72.9796 25.1295 72.9884 24.6991C72.9928 24.372 72.9994 24.3066 73.0392 24.2243C73.1231 24.0428 73.2998 23.9458 73.6156 23.9078C73.8674 23.8761 74.1147 23.8951 74.234 23.9542ZM71.3497 24.0555C71.5749 24.1167 71.7074 24.4712 71.7097 25.0261C71.7097 25.4144 71.6235 25.6254 71.4181 25.7499C71.2613 25.8449 71.1774 25.8596 70.8152 25.8596C70.5104 25.8596 70.464 25.8554 70.3956 25.8174C70.2101 25.7119 70.1769 25.5178 70.2167 24.7223C70.2322 24.4079 70.2476 24.1483 70.252 24.1441C70.2564 24.1399 70.2829 24.1483 70.3117 24.1631C70.3956 24.2074 70.6098 24.1948 70.8285 24.1315C71.0029 24.0829 71.173 24.0449 71.2459 24.0365C71.2591 24.0365 71.3055 24.0449 71.3497 24.0555ZM67.3677 24.372C67.7652 24.3931 67.9309 24.4163 68.0126 24.4564C68.1009 24.5028 68.1583 24.8953 68.123 25.2097C68.0766 25.598 67.9772 25.8364 67.8293 25.9208C67.7365 25.9736 66.979 26.2226 66.9657 26.2057C66.9569 26.1973 66.7714 24.4037 66.7736 24.3551C66.7736 24.334 66.7979 24.3298 66.8686 24.3382C66.9194 24.3467 67.1446 24.3615 67.3677 24.372ZM64.9317 24.9966C64.9074 25.6571 64.861 25.9019 64.7395 26.0179C64.649 26.1023 64.4392 26.2036 64.289 26.2331C64.183 26.2521 64.1609 26.25 64.0704 26.2099C63.9533 26.1551 63.8098 26.0264 63.7568 25.9293C63.6993 25.8238 63.6728 25.4482 63.6927 24.9987L63.7082 24.6041H64.3288H64.9471L64.9317 24.9966ZM61.7823 24.7561C61.7823 24.9164 61.7117 25.7457 61.6829 25.9504C61.6366 26.269 61.6167 26.326 61.5438 26.3534C61.3914 26.4104 60.9188 26.442 60.8327 26.3977C60.7907 26.3766 60.6913 26.1508 60.6251 25.9314C60.5743 25.7626 60.3689 24.9143 60.3755 24.908C60.3799 24.9016 61.6874 24.697 61.7558 24.6906C61.7713 24.6885 61.7823 24.7138 61.7823 24.7561ZM59.0703 25.0072C59.1321 25.0409 59.1829 25.0916 59.2182 25.1528C59.269 25.2393 59.2734 25.273 59.2911 25.7204C59.2999 26.0158 59.2999 26.2268 59.2867 26.2732C59.2514 26.3935 59.1741 26.4864 59.057 26.5433C58.8516 26.6446 58.4165 26.6045 58.2465 26.4674C58.1162 26.3619 58.1073 26.3218 58.0897 25.8385C58.0808 25.5938 58.0676 25.3448 58.0587 25.2836C58.0411 25.1464 58.0808 25.081 58.2156 25.024C58.4364 24.9312 58.9068 24.9228 59.0703 25.0072ZM56.2102 25.1528C56.42 25.176 56.6254 25.2076 56.6696 25.2245C56.7646 25.2625 56.7844 25.3089 56.8176 25.5748C56.8441 25.7963 56.8242 26.077 56.7557 26.4273C56.7204 26.6024 56.716 26.6151 56.6497 26.6404C56.5547 26.6784 56.1528 26.7227 56.0556 26.7058C55.9805 26.6932 55.9739 26.6826 55.9076 26.518C55.837 26.3408 55.7199 25.9546 55.6073 25.5347L55.5454 25.2962L55.647 25.2034C55.7045 25.1528 55.7685 25.1106 55.7906 25.1106C55.8127 25.1106 56.0004 25.1295 56.2102 25.1528ZM54.4235 25.3195C54.5869 25.3996 54.598 25.4482 54.5958 26.0812C54.5936 26.6151 54.5936 26.6193 54.5384 26.7143C54.5008 26.7754 54.4478 26.8261 54.3838 26.862C54.2954 26.9084 54.2601 26.9147 54.0724 26.9126C53.8868 26.9126 53.8427 26.9042 53.7345 26.8535C53.6395 26.8092 53.5975 26.7733 53.5511 26.6995C53.4937 26.6066 53.4915 26.5876 53.4738 26.1466C53.465 25.8955 53.4628 25.6613 53.4694 25.6275C53.5246 25.3701 53.7433 25.2519 54.1298 25.2667C54.28 25.2709 54.3506 25.2836 54.4235 25.3195ZM51.8329 25.4081C52.1156 25.4355 52.2327 25.4862 52.3055 25.6149C52.469 25.8997 52.4844 26.4336 52.3365 26.7058C52.2702 26.8324 52.1244 26.9063 51.6717 27.054C51.4442 27.1278 51.2454 27.1911 51.2322 27.1954C51.2101 27.2017 51.2035 27.0076 51.2035 26.2817V25.3595L51.4089 25.3722C51.5193 25.3806 51.7114 25.3975 51.8329 25.4081ZM90.6942 27.6554C90.7847 27.6997 90.8399 27.82 90.8686 28.0246C90.8973 28.2525 90.8973 30.0694 90.8686 30.3753C90.8134 30.9282 90.6721 31.1666 90.3121 31.3101C89.8284 31.5021 88.4481 31.6245 85.9878 31.6942C84.0995 31.7469 84.2099 31.7469 84.1039 31.7068C83.9891 31.6667 83.9272 31.6076 83.8809 31.5C83.8521 31.4346 83.8455 31.2785 83.8411 30.5399C83.8345 29.5735 83.8411 29.506 83.9581 29.276C84.0399 29.1198 84.232 28.9067 84.338 28.8581C84.5765 28.7505 89.5281 27.7187 90.2635 27.6237C90.4446 27.6005 90.608 27.6111 90.6942 27.6554ZM94.643 28.3412C94.6938 28.5585 94.7336 28.7442 94.7336 28.7547C94.7336 28.7716 94.4464 28.8455 94.378 28.8455C94.3471 28.8455 94.3228 28.7737 94.2146 28.377L94.1196 28.0225L94.1991 28.0035C94.4729 27.9339 94.526 27.9234 94.5392 27.936C94.5458 27.9423 94.5944 28.1259 94.643 28.3412ZM77.3436 29.468C77.3878 29.5714 77.3856 29.584 77.2751 29.755C76.9483 30.2635 76.9306 30.6433 77.2177 31.0084C77.2994 31.1118 77.2994 31.1139 77.2641 31.173C77.2442 31.2046 77.2221 31.2342 77.2155 31.2405C77.2089 31.2468 77.0123 31.2278 76.776 31.1983C76.109 31.116 76.0781 31.1033 75.9964 30.8522C75.8639 30.4513 75.8683 29.9934 76.0075 29.6368C76.0494 29.5292 76.0649 29.5123 76.1576 29.4722C76.2592 29.4279 76.5353 29.4068 77.1051 29.3983L77.3105 29.3941L77.3436 29.468ZM74.3378 29.6094C74.3577 29.6621 74.4151 30.1411 74.4372 30.4196C74.4747 30.9345 74.4107 31.1898 74.2185 31.2869C74.139 31.327 74.0882 31.3354 73.9314 31.3354C73.7702 31.3354 73.3219 31.2827 73.1077 31.2384L73.0458 31.2257V30.8227C73.048 30.2635 73.0767 29.9174 73.1364 29.8035C73.185 29.7043 73.2799 29.6368 73.4124 29.6072C73.5516 29.5756 74.3268 29.5777 74.3378 29.6094ZM119.107 29.622C119.317 29.6389 119.423 29.6959 119.544 29.8562C119.674 30.0272 119.679 30.0609 119.677 30.7193C119.674 31.0464 119.67 31.3186 119.666 31.3228C119.661 31.327 118.886 31.2468 117.945 31.1476L116.234 30.9662L116.227 30.2846L116.223 29.6051L117.574 29.6072C118.318 29.6072 119.007 29.6157 119.107 29.622ZM71.5617 30.3268C71.5551 30.9619 71.5529 30.9915 71.5021 31.1118C71.4402 31.2574 71.3298 31.384 71.2039 31.4473C71.1288 31.4853 71.0758 31.4937 70.9035 31.4937C70.5502 31.4937 70.3293 31.3966 70.2388 31.1983C70.199 31.1075 70.1791 30.6539 70.1924 29.9892L70.1968 29.6684H70.8837H71.5683L71.5617 30.3268ZM68.0987 29.8204C68.0987 29.8351 68.0678 30.1854 68.028 30.599L67.9574 31.3523L67.8226 31.365C67.7012 31.3755 67.562 31.3608 67.5068 31.3291C67.4693 31.3059 67.4384 31.2046 67.392 30.9514C67.3522 30.7256 67.2992 30.5631 67.1071 30.0736C67.0695 29.9786 67.043 29.8984 67.0452 29.8984C67.0497 29.8963 67.9839 29.8035 68.0612 29.7972C68.081 29.7972 68.0987 29.8077 68.0987 29.8204ZM64.9118 29.8921C64.9913 29.947 65.0509 30.0588 65.0509 30.1538C65.0509 30.1939 65.0289 30.3078 65.0046 30.407C64.9692 30.542 64.9582 30.637 64.9648 30.7974C64.9781 31.2531 64.9759 31.2785 64.9229 31.3608C64.8522 31.4684 64.691 31.5401 64.4546 31.5676C63.9842 31.6224 63.8075 31.5591 63.7302 31.3143C63.7192 31.2742 63.7015 31.0063 63.6949 30.7214C63.6795 30.1622 63.6905 30.0778 63.7987 29.9681C63.9158 29.8457 63.9666 29.8372 64.4259 29.8436C64.8146 29.8478 64.8544 29.852 64.9118 29.8921ZM61.5416 30.0799C61.7426 30.177 61.7647 30.2297 61.789 30.6918C61.8243 31.3523 61.8177 31.3861 61.6366 31.5021C61.4952 31.5908 61.3472 31.6203 61.0314 31.6203C60.8084 31.6203 60.7421 31.614 60.6847 31.5823C60.5919 31.5359 60.5389 31.4346 60.5389 31.3143C60.5478 30.5083 60.5566 30.3521 60.5986 30.274C60.6494 30.1749 60.773 30.0947 60.9276 30.0567C61.0844 30.0187 61.4422 30.0314 61.5416 30.0799ZM59.11 30.1981C59.1453 30.2466 59.1983 30.3395 59.2249 30.4049C59.2712 30.5167 59.2756 30.5505 59.2756 31.0864C59.2756 31.3945 59.269 31.6541 59.2624 31.6604C59.2558 31.6667 59.0614 31.6583 58.8317 31.6414C58.2906 31.5992 58.2752 31.5908 58.22 31.3776C58.1471 31.097 58.1714 30.3606 58.2553 30.2635C58.326 30.1791 58.5844 30.1158 58.8604 30.1137L59.0438 30.1116L59.11 30.1981ZM56.8043 30.2403C56.9324 30.3141 56.9501 30.388 56.9744 30.8923C56.9987 31.4473 56.9854 31.5317 56.8485 31.6604C56.7314 31.7722 56.6011 31.8102 56.3383 31.8102C56.0402 31.8081 55.89 31.7406 55.7994 31.5697C55.742 31.462 55.731 31.4051 55.7089 31.0485C55.6956 30.8754 55.6802 30.6813 55.6735 30.6159C55.6559 30.4597 55.7045 30.3584 55.8215 30.3015C55.9253 30.2487 56.473 30.1749 56.6254 30.1896C56.6873 30.196 56.7668 30.2192 56.8043 30.2403ZM54.5096 30.3184C54.5737 30.35 54.6201 30.3943 54.6532 30.4555C54.7018 30.5399 54.704 30.5674 54.704 30.9873C54.704 31.3565 54.6974 31.4515 54.6642 31.5549C54.5781 31.8208 54.3595 31.9136 54.0039 31.8334C53.6837 31.7617 53.5688 31.5823 53.5224 31.0717C53.5092 30.9324 53.4893 30.7805 53.4783 30.7341C53.4297 30.5378 53.4761 30.4007 53.6108 30.3331C53.6991 30.2888 53.9641 30.2614 54.2181 30.2677C54.3727 30.2719 54.4368 30.2825 54.5096 30.3184ZM52.2459 30.3838C52.3298 30.4133 52.3784 30.6285 52.3917 31.04C52.4027 31.3945 52.363 31.6878 52.2967 31.7575C52.2503 31.806 52.0648 31.8524 51.7004 31.9073C51.5436 31.9305 51.3912 31.9537 51.3647 31.96L51.3139 31.9727V31.1561V30.3373L51.7512 30.35C51.9919 30.3563 52.215 30.3732 52.2459 30.3838ZM115.902 32.3356C115.931 32.9961 115.882 33.224 115.675 33.4055L115.575 33.4941L115.37 33.4793C115.257 33.473 115.098 33.4456 115.014 33.4224C114.855 33.3738 114.855 33.3759 114.544 33.0446C114.253 32.7345 114.16 32.7408 113.65 33.0974C113.46 33.2282 113.451 33.2324 113.435 33.1881C113.411 33.108 113.237 32.1141 113.245 32.1056C113.25 32.1014 113.84 32.0698 114.555 32.036C115.273 32.0022 115.865 31.9727 115.871 31.9706C115.88 31.9706 115.893 32.1331 115.902 32.3356ZM118.95 32.0255L119.524 32.0381L119.456 32.8062C119.416 33.2282 119.381 33.5785 119.376 33.5827C119.361 33.5975 117.435 33.4097 117.004 33.3506C116.783 33.3211 116.556 33.2831 116.494 33.2662C116.388 33.2367 116.298 33.1649 116.247 33.0721C116.209 33.0003 116.22 32.7809 116.278 32.5171C116.335 32.2428 116.346 32.2301 116.598 32.1099C116.739 32.0423 116.744 32.0423 117.15 32.0297C117.795 32.0107 118.329 32.0107 118.95 32.0255ZM94.5237 33.1966C94.7225 33.4561 94.7998 33.6144 94.7998 33.7663C94.7998 33.9182 94.749 34.0237 94.6099 34.1546L94.5127 34.2495L94.4222 34.201C94.2764 34.1229 94.166 34.0216 94.1152 33.9182C94.0732 33.8381 94.0666 33.798 94.0754 33.6819C94.082 33.6017 94.1085 33.492 94.135 33.435C94.1947 33.3042 94.3625 33.0235 94.378 33.0235C94.3846 33.0257 94.4509 33.1016 94.5237 33.1966ZM103.148 33.9225C104.16 34.0048 105.041 34.0934 105.162 34.1229C105.253 34.1461 105.361 34.2559 105.447 34.4162C105.522 34.5576 105.535 34.9691 105.529 36.9062C105.524 38.7568 105.522 38.7209 105.677 39.0353C105.736 39.1514 105.794 39.2294 105.906 39.3328L106.057 39.4721L105.906 39.7612C105.686 40.1811 105.606 40.3752 105.566 40.5989C105.432 41.3628 105.299 41.4641 104.442 41.4641C104.27 41.4641 104.009 41.4788 103.866 41.4978C103.477 41.5485 103.208 41.5443 103.075 41.4894C102.936 41.4303 102.896 41.3438 102.839 40.9745C102.812 40.8205 102.79 40.6791 102.786 40.6622C102.781 40.6453 102.77 40.6052 102.764 40.5736C102.755 40.5377 102.713 40.4913 102.649 40.4491C102.594 40.4132 102.545 40.3879 102.541 40.3921C102.536 40.3942 102.572 40.5462 102.618 40.7255C102.664 40.9049 102.7 41.0568 102.695 41.061C102.675 41.0779 102.479 40.9513 102.357 40.8416C102.223 40.7234 102.121 40.5652 102.05 40.3668C102.013 40.2592 102.011 40.1537 102.011 38.7948C102.011 37.9929 102.006 36.5876 102.004 35.6718C102 34.7539 102.002 33.9647 102.011 33.9161L102.028 33.8254L102.141 33.8359C102.203 33.8423 102.656 33.8803 103.148 33.9225ZM119.131 34.4922C119.195 34.4985 119.25 34.526 119.323 34.5872C119.44 34.6863 119.456 34.7623 119.383 34.8995C119.343 34.9712 119.328 34.9817 119.239 34.9923C119.076 35.0134 118.813 35.1231 118.508 35.294C117.735 35.7266 117.45 35.811 117.002 35.7372C116.45 35.6464 116.311 35.4987 116.311 35.0092C116.311 34.7644 116.344 34.6589 116.45 34.5682C116.565 34.4669 116.587 34.4648 117.852 34.4732C118.504 34.4774 119.08 34.4859 119.131 34.4922ZM89.6672 34.5449C90.0029 34.5893 90.1906 34.6948 90.2856 34.891C90.354 35.0282 90.3563 35.294 90.2944 35.5663C90.2436 35.7878 90.1818 35.8828 90.0382 35.9756C89.8969 36.0642 89.7865 36.0896 89.5921 36.079C89.5038 36.0727 89.3492 36.0811 89.2498 36.0959C88.7087 36.1803 88.4128 36.0917 88.2604 35.7963C88.1897 35.6591 88.1853 35.6422 88.1742 35.3362L88.161 35.0176L88.0351 34.7813C87.9666 34.6505 87.9092 34.5386 87.9092 34.5323C87.9092 34.5112 89.4971 34.5217 89.6672 34.5449ZM64.7373 34.6209L64.9184 34.6336L64.9162 35.4164V36.1993L64.8654 36.0579C64.7351 35.7034 64.5651 35.5831 64.1477 35.5578C63.929 35.5452 63.918 35.5409 63.8672 35.4818C63.7766 35.3763 63.675 35.159 63.664 35.0514C63.6552 34.9501 63.6574 34.9438 63.7612 34.8383C63.8694 34.7285 63.9909 34.6547 64.1123 34.6251C64.1985 34.6061 64.5054 34.6019 64.7373 34.6209ZM67.7188 34.6315L67.9883 34.6547V35.1358C67.9883 35.3996 67.9772 35.6654 67.964 35.7224C67.9419 35.8216 67.7299 36.1909 67.6857 36.2035C67.657 36.2141 67.2551 35.8701 67.2219 35.8089C67.18 35.7266 67.0011 35.159 66.9724 35.0134C66.8951 34.642 67.0386 34.5682 67.7188 34.6315ZM77.9333 34.699L78.0481 34.7222L78.0548 36.174C78.0592 37.2691 78.0525 37.6236 78.0327 37.6236C78.0194 37.6236 77.7676 37.5856 77.4761 37.5371C76.553 37.3873 76.2946 37.305 76.0582 37.0834C75.8418 36.883 75.8153 36.6108 75.992 36.3913C76.0715 36.29 76.2879 36.1951 76.4735 36.1803C76.7628 36.155 76.9152 36.0706 77.0145 35.8786C77.0742 35.7604 77.0764 35.7435 77.0786 35.4185C77.0808 35.2329 77.094 35.0429 77.1073 34.9944C77.1559 34.8193 77.284 34.7011 77.4607 34.6673C77.5534 34.6505 77.7699 34.6631 77.9333 34.699ZM110.039 36.9167C110.41 37.0033 110.734 37.0792 110.763 37.0855C110.812 37.0961 110.812 37.0982 110.807 37.4295L110.801 37.7608L110.204 38.2102C109.877 38.4592 109.584 38.6766 109.555 38.6956C109.504 38.7293 109.5 38.7272 109.429 38.6492C109.275 38.4782 109.25 38.2398 109.343 37.7312C109.42 37.3071 109.414 37.0244 109.321 36.7943C109.31 36.7711 109.316 36.7585 109.336 36.7585C109.352 36.7585 109.67 36.8302 110.039 36.9167ZM115.427 36.8513C115.613 36.9083 115.759 36.9906 115.798 37.0644C115.876 37.2016 115.827 37.6068 115.717 37.746C115.602 37.8937 115.191 37.8325 114.416 37.5561C114.219 37.4844 114.052 37.4316 114.047 37.4379C114.041 37.4443 113.99 37.6806 113.937 37.9613C113.848 38.4255 113.833 38.4803 113.778 38.5352C113.745 38.5669 113.711 38.5943 113.703 38.5943C113.676 38.5943 113.415 38.1765 113.349 38.0267C113.208 37.708 113.181 37.3725 113.281 37.1889C113.374 37.0138 113.575 36.8893 113.831 36.845C114.052 36.807 114.076 36.8049 114.699 36.8091C115.207 36.8133 115.326 36.8218 115.427 36.8513ZM89.9499 38.512C90.0802 38.5542 90.1729 38.6513 90.2149 38.7821C90.2414 38.8707 90.2502 38.9889 90.2502 39.2801V39.662L89.7622 40.0334L89.2741 40.4027L88.0395 40.1663L86.8072 39.93L86.7453 39.9701C86.3566 40.2233 85.9701 40.2613 85.1044 40.1347C84.6097 40.0629 84.1856 40.0418 83.8963 40.0777L83.7572 40.0946V39.2927V38.4888L86.3257 38.4825C89.6451 38.474 89.8417 38.4761 89.9499 38.512ZM58.9885 38.5837C61.3958 38.6217 61.4223 38.6238 61.5173 38.6618C61.6145 38.7019 61.7072 38.8032 61.7404 38.9066C61.7757 39.0205 61.7934 39.9574 61.7625 40.1874C61.7227 40.4997 61.6255 40.6411 61.4025 40.7171C61.228 40.7762 61.0248 40.7888 60.0376 40.8099C59.4965 40.8205 58.6374 40.8458 58.1272 40.8648C57.617 40.8838 56.9457 40.8986 56.6365 40.9007C56.0865 40.9049 56.0711 40.9028 55.9584 40.8542C55.8193 40.7952 55.6978 40.6749 55.6669 40.563C55.6515 40.5124 55.6426 40.1326 55.6426 39.5164V38.5521H56.356C56.7469 38.5521 57.9329 38.5669 58.9885 38.5837ZM64.7594 38.7779C64.8853 38.8686 64.9074 38.9361 64.914 39.2738C64.9184 39.4468 64.9162 39.5861 64.9096 39.5861C64.8941 39.5861 63.7435 39.0395 63.728 39.0248C63.7104 39.0079 63.8142 38.8264 63.8473 38.8137C63.8628 38.8074 63.9864 38.7842 64.1167 38.761C64.4215 38.7125 64.6755 38.7188 64.7594 38.7779ZM68.1937 39.1788C68.0258 39.8372 67.9397 40.0925 67.8337 40.2571C67.752 40.3858 67.5267 40.4407 67.3169 40.3858C67.2043 40.3563 67.0585 40.2254 66.9945 40.0946C66.9657 40.0355 66.9481 39.9806 66.9547 39.9743C66.9635 39.968 67.0452 39.9785 67.1358 39.9975C67.3368 40.0397 67.4141 40.0313 67.6106 39.9342C67.8624 39.8118 67.858 39.8245 67.6946 39.6768C67.593 39.5839 67.5267 39.5417 67.456 39.5227C67.1888 39.4573 67.0806 39.413 67.0276 39.3455C66.9768 39.2822 66.9127 39.0902 66.8752 38.8834L66.8597 38.8053H67.5753H68.2909L68.1937 39.1788Z" fill="white"/>
<path d="M22.8679 37.7798C10.3146 41.2509 0.0316924 44.0975 0.0162327 44.1017C0.000772984 44.1081 -0.00364407 44.1355 0.00298151 44.1693C0.0140241 44.222 0.0250668 44.2283 0.0957396 44.2283C0.480023 44.2241 47.2522 42.6289 47.2633 42.6204C47.2743 42.6078 45.8123 31.6794 45.7791 31.519C45.7703 31.4831 45.7526 31.462 45.7305 31.4642C45.7107 31.4663 35.4211 34.3086 22.8679 37.7798Z" fill="white"/>
<path d="M123.886 31.4663C123.886 31.4705 123.548 33.9794 123.137 37.0433C122.724 40.1073 122.391 42.6183 122.397 42.6225C122.408 42.6331 169.627 44.2326 169.638 44.2241C169.64 44.2199 169.649 44.1925 169.658 44.1629C169.671 44.1123 169.664 44.1038 169.598 44.0827C169.432 44.0321 123.926 31.462 123.908 31.462C123.895 31.462 123.886 31.4642 123.886 31.4663Z" fill="white"/>
<path d="M87.4784 47.499C84.7486 47.6446 82.6196 49.1238 81.5728 51.599C80.8285 53.3589 80.6562 55.2474 81.0648 57.1698C81.3696 58.6004 81.8996 59.7758 82.655 60.6916C82.8869 60.9722 83.397 61.4554 83.6841 61.6644C84.6161 62.3417 85.727 62.7553 87.1029 62.9347C87.4607 62.9832 88.3574 63.0001 88.7196 62.9684C90.7779 62.7827 92.5204 61.7994 94.0995 59.9256L94.1813 59.8285L93.0218 58.8494C92.3835 58.3114 91.8513 57.8703 91.8424 57.8703C91.8314 57.8703 91.6459 58.056 91.4272 58.2818C91.0319 58.6912 90.8331 58.8748 90.5593 59.0773C90.0535 59.4529 89.4108 59.7399 88.8035 59.8644C88.4877 59.9298 87.8119 59.9467 87.485 59.8982C86.9925 59.8243 86.5508 59.6724 86.1577 59.4424C85.0159 58.7798 84.3533 57.6657 84.1192 56.024C84.0706 55.6906 84.064 54.8908 84.106 54.5574C84.3312 52.7828 85.1462 51.5209 86.4625 50.9048C87.8185 50.2718 89.4572 50.5207 90.747 51.5547C90.9369 51.7066 91.2461 51.9999 91.637 52.4009C91.7364 52.5043 91.827 52.5845 91.838 52.5802C91.8623 52.5718 94.2033 50.6009 94.2033 50.5883C94.2033 50.563 93.6866 50.0206 93.4193 49.7674C92.2863 48.6828 91.149 48.0435 89.7664 47.7101C89.0509 47.537 88.2116 47.4611 87.4784 47.499Z" fill="white"/>
<path d="M143.696 47.6172C143.654 47.6214 143.511 47.6362 143.376 47.6489C142.285 47.7523 141.106 48.1806 140.372 48.7398C139.387 49.491 138.882 50.5229 138.822 51.8987C138.8 52.4389 138.871 52.9347 139.036 53.4095C139.228 53.9603 139.522 54.4013 139.988 54.8339C140.558 55.3593 141.174 55.6927 142.36 56.1084C142.749 56.2455 144.403 56.8744 144.801 57.0368C144.977 57.1086 145.308 57.2584 145.538 57.3702C146.02 57.6024 146.174 57.7205 146.38 58.0159C146.669 58.4316 146.744 58.8473 146.578 59.1153C146.397 59.4128 145.839 59.664 145.024 59.8159C144.754 59.8665 144.67 59.8707 144.215 59.8729C143.643 59.875 143.409 59.8433 142.981 59.7062C142.166 59.4445 141.592 59.0415 140.706 58.1067C140.401 57.7838 140.35 57.7374 140.317 57.7606C140.156 57.8703 137.711 59.8117 137.716 59.8243C137.722 59.8433 138.524 60.5671 138.886 60.8794C140.269 62.0822 141.684 62.7469 143.321 62.96C143.659 63.0043 144.608 63.0085 144.944 62.9684C146.914 62.7342 148.303 62.0779 149.114 61.0018C149.319 60.7275 149.571 60.24 149.69 59.8876C150.01 58.9317 150.033 57.9653 149.754 57.1318C149.458 56.2498 148.827 55.507 147.848 54.8929C147.38 54.5996 146.894 54.3654 146.022 54.0172C145.028 53.6184 144.809 53.5277 144.222 53.2681C143.166 52.8039 142.499 52.4557 142.298 52.2637C142.159 52.1287 142.106 52.0189 142.106 51.8459C142.106 51.5885 142.289 51.331 142.634 51.1095C142.93 50.9175 143.191 50.8373 143.763 50.7592C144.617 50.6431 145.346 50.7254 145.969 51.004C146.324 51.1622 146.572 51.3395 146.943 51.6961C147.131 51.8797 147.382 52.1076 147.502 52.2025L147.718 52.3798L147.811 52.3165C147.862 52.2806 148.445 51.8945 149.107 51.4555C149.77 51.0187 150.313 50.6579 150.315 50.6558C150.32 50.6537 150.181 50.4954 150.008 50.3034C149.182 49.3897 148.462 48.8453 147.44 48.3642C146.62 47.9781 145.889 47.767 144.997 47.6573C144.741 47.6257 143.866 47.5982 143.696 47.6172Z" fill="white"/>
<path d="M30.2729 47.7037L30.1338 47.7122V55.2643V62.8186H31.6908H33.2478L33.2522 58.3325L33.2589 53.8463L33.3317 53.8189L33.4024 53.7893L33.5879 54.0046C33.6917 54.1227 34.2394 54.8085 34.807 55.5281C40.812 63.1393 40.4498 62.692 40.6707 62.7975C40.8076 62.865 41.1919 62.884 42.2365 62.8777L43.131 62.8713V55.3065V47.7417L41.5585 47.7354L39.9838 47.7312L39.9794 52.3228L39.9728 56.9166L39.7387 56.6443C39.6106 56.4945 38.7515 55.4268 37.8305 54.2726C32.5411 47.6425 32.7178 47.8599 32.5102 47.7649C32.4505 47.7375 32.3379 47.7206 32.1347 47.7079C31.8586 47.6911 30.5622 47.689 30.2729 47.7037Z" fill="white"/>
<path d="M49.9666 47.7164C49.9666 47.8177 51.3469 51.5273 54.5802 60.1176C54.7878 60.6684 55.0175 61.3183 55.0903 61.5631C55.3929 62.5569 55.5895 62.8102 56.1283 62.9072C56.2056 62.922 56.4066 62.9241 56.6805 62.9136C56.9168 62.9072 57.3452 62.8924 57.6301 62.884C58.0895 62.8713 58.1602 62.865 58.2507 62.8249C58.37 62.7743 58.4893 62.6646 58.5688 62.5358C58.5997 62.4852 58.8669 61.7889 59.1629 60.9891C59.8762 59.0668 60.2958 57.9421 61.5282 54.6629C63.1073 50.4596 64.1254 47.7438 64.1298 47.7227C64.132 47.7143 63.4032 47.7058 62.511 47.7037L60.8877 47.7016L60.7751 47.7565C60.647 47.8219 60.5454 47.9211 60.4703 48.0646C60.4416 48.1194 60.2936 48.5014 60.1412 48.9128C58.6196 53.0381 57.0957 57.0432 57.014 57.1255C56.9941 57.1466 56.866 56.8132 55.8876 54.1882C54.4167 50.2338 53.7056 48.3515 53.6217 48.1954C53.551 48.0624 53.3191 47.8261 53.2065 47.7712C53.0806 47.7101 52.5991 47.6911 51.1658 47.689C50.1918 47.689 49.9666 47.6932 49.9666 47.7164Z" fill="white"/>
<path d="M118.002 47.767C117.945 47.9612 117.943 48.1954 117.952 53.0592C117.963 58.4759 117.956 58.2143 118.078 58.7946C118.184 59.2947 118.466 59.9551 118.758 60.3814C119.131 60.9321 119.714 61.4829 120.374 61.9155C121.273 62.5042 122.269 62.846 123.51 62.9916C123.822 63.0275 124.997 63.0275 125.388 62.9916C127.587 62.7848 129.233 61.8711 130.198 60.3202C130.629 59.6302 130.902 58.7967 130.997 57.883C131.022 57.6424 131.026 48.0899 131 47.8683L130.986 47.7417H129.407H127.828L127.826 52.5317C127.826 55.1652 127.817 57.3977 127.808 57.4905C127.727 58.362 127.409 58.9444 126.814 59.3116C126.393 59.5732 125.633 59.818 124.935 59.9193C124.61 59.9657 123.855 59.972 123.588 59.9298C122.154 59.7061 121.335 58.8178 121.194 57.3323C121.178 57.1719 121.169 55.5197 121.169 52.4093V47.7312H119.593C118.108 47.7312 118.013 47.7333 118.002 47.767Z" fill="white"/>
<path d="M20.1449 47.767C20.136 47.7734 20.1294 51.1686 20.1294 55.3107V62.8397L21.693 62.8355L23.2545 62.8291V55.296V47.7628L21.7063 47.7565C20.856 47.7544 20.1515 47.7586 20.1449 47.767Z" fill="white"/>
<path d="M70.9077 55.2896L70.9144 62.8291H72.4824H74.0505L74.0571 55.2896L74.0615 47.7523H72.4824H70.9033L70.9077 55.2896Z" fill="white"/>
<path d="M100.961 49.2716V50.7908H102.739H104.517V56.8153V62.8397H106.118H107.72V56.8047V50.7697H109.431H111.143V49.261V47.7523H106.052H100.961V49.2716Z" fill="white"/>
<path d="M0.153237 66.6907C0.181948 66.7012 2.08791 66.9291 3.13475 67.0494C4.51729 67.2056 5.95504 67.3554 10.1689 67.7879C12.373 68.0158 15.3258 68.3197 16.7282 68.4632C21.6267 68.9675 26.3265 69.4486 32.729 70.0985C36.2759 70.4594 40.5097 70.892 42.1373 71.0608C48.6326 71.7318 50.4171 71.9133 53.3677 72.1981C56.6319 72.5146 57.7229 72.6455 59.2313 72.9071C60.8414 73.1878 62.3365 73.5739 63.6042 74.0382C64.2535 74.2766 64.4656 74.4053 64.6444 74.6691C64.6842 74.7282 64.8366 75.0426 64.9801 75.3654C65.3909 76.2791 65.7509 77.0219 66.2103 77.8955C66.4466 78.3449 66.6432 78.7459 66.6586 78.8092C66.6962 78.9695 66.6917 79.1489 66.6432 79.2945C66.6211 79.362 66.44 79.7039 66.239 80.0499C65.7355 80.9214 64.1519 83.7448 64.1387 83.7954C64.1365 83.806 64.7505 84.3356 65.5036 84.9771C66.2567 85.6165 67.1688 86.3993 67.531 86.7137C67.8954 87.0281 68.2377 87.3151 68.2929 87.3531C68.527 87.5071 68.7832 87.5325 69.0814 87.4269C69.1786 87.3932 69.5076 87.2581 69.8102 87.1273C70.8813 86.6673 73.2489 85.7177 73.7701 85.5384C73.9711 85.4687 74.2184 85.4476 74.4481 85.4814C74.6689 85.5131 74.9936 85.6207 76.3806 86.1187C77.6792 86.585 78.3174 86.8087 78.8497 86.9817C79.3201 87.1336 79.5122 87.2265 79.6735 87.3826C79.8369 87.5409 79.8943 87.6548 80.3228 88.6994C80.5215 89.1868 80.939 90.1786 81.2459 90.9044L81.8069 92.2233L84.9739 92.2296L88.1432 92.2338L88.3243 91.8076C88.4214 91.5712 88.7306 90.839 89.0089 90.1764C89.2872 89.5139 89.6317 88.6888 89.7753 88.3406C89.9166 87.9925 90.0602 87.6612 90.0911 87.6021C90.175 87.4523 90.3694 87.2771 90.5483 87.1864C90.6344 87.1442 90.8773 87.0535 91.0893 86.9838C91.7033 86.7834 92.1914 86.6124 93.3928 86.1799C95.0029 85.6017 95.2878 85.5067 95.5417 85.4772C95.8642 85.4392 95.9768 85.4645 96.7255 85.7367C98.2207 86.2769 98.9561 86.5829 99.7468 86.9901C100.608 87.4333 101.173 87.4902 101.79 87.1969C102.061 87.0682 102.218 86.9416 102.861 86.3381C103.552 85.6861 103.769 85.4983 104.893 84.574C105.312 84.228 105.692 83.9136 105.736 83.8756L105.82 83.8038L105.189 82.6855C104.003 80.5796 103.362 79.4084 103.329 79.2882C103.287 79.1383 103.276 78.9527 103.3 78.8282C103.333 78.6551 103.806 77.6486 104.716 75.817C105.277 74.6881 105.363 74.5277 105.476 74.4159C105.562 74.3315 105.597 74.3167 105.9 74.2239C106.081 74.169 106.75 73.9601 107.388 73.7596C109.071 73.23 109.698 73.0527 110.602 72.8544C111.797 72.5906 113.19 72.407 115.505 72.2087C117.444 72.042 117.748 72.0145 121.059 71.679C128.396 70.9405 134.328 70.3454 140.362 69.7398C149.558 68.8177 161.396 67.6276 165.956 67.1655C168.136 66.946 169.938 66.7645 169.96 66.7645C169.985 66.7645 170 66.7498 170 66.7223C170 66.6865 169.985 66.6801 169.907 66.6801C169.488 66.6738 95.2038 67.5537 95.195 67.5643C95.1773 67.579 95.2171 67.8196 95.2922 68.1678C95.3606 68.4716 95.4269 68.8979 95.4644 69.2439C95.4998 69.571 95.4998 70.4615 95.4644 70.7738C95.2789 72.445 94.6385 73.825 93.4171 75.1819C91.7011 77.0894 89.5169 78.3154 87.1582 78.6952C86.4691 78.8071 86.235 78.8239 85.303 78.8239C84.3887 78.8239 84.1965 78.8134 83.492 78.7163C82.0476 78.5201 80.7954 78.1635 79.6381 77.6212C77.2971 76.5218 75.6959 74.7324 74.8545 72.2741C74.4393 71.0565 74.3443 70.0162 74.5342 68.767C74.5828 68.4548 74.7109 67.8365 74.7683 67.6529C74.7794 67.6128 74.786 67.5769 74.7816 67.5727C74.7728 67.5622 74.9141 67.5643 32.3801 67.06C14.7825 66.8511 0.325502 66.6801 0.257038 66.6822C0.188573 66.6822 0.142194 66.6865 0.153237 66.6907Z" fill="white"/>
</svg>
